<svg xmlns="http://www.w3.org/2000/svg" viewBox="0 0 493.47 493.47"><defs><style>.cls-1{fill:#fff;}</style></defs><title>Ativo 8</title><g id="Camada_2" data-name="Camada 2"><g id="Camada_1-2" data-name="Camada 1"><path class="cls-1" d="M493.47,246.74c0,136.16-110.31,246.57-246.44,246.73h-.29A94.58,94.58,0,0,1,184.3,328c1.92-1.71,3.92-3.33,6-4.87,1,1.39,1.9,2.82,2.79,4.27a94.85,94.85,0,0,1,9.32,78.93,91.52,91.52,0,0,1-3.86,9.88,93,93,0,0,0,8.91-4.05A94.73,94.73,0,0,0,256.1,306.44c.8-.48,1.58-1,2.37-1.47A150.39,150.39,0,0,0,328.6,177.86q0-6.12-.49-12.13c-.12-1.58-.27-3.15-.45-4.72-3-.19-6.1-.28-9.18-.28a149.72,149.72,0,0,0-105.56,43.34,51.2,51.2,0,0,0-4,3.77,54.17,54.17,0,0,0-4.88,5.81,150,150,0,0,0-15.66,22.18c-.14.24-.28.47-.41.71a94.75,94.75,0,0,0-110,52.26l-.57.22q.16.17.33.3l.24-.52a94.72,94.72,0,0,1,90.69,11.95q1.6,1.19,3.15,2.43c-1.1,1.56-2.26,3.08-3.46,4.58A94.6,94.6,0,0,1,0,251.11c0-1,0-2.09,0-3.14v-1.23A245.73,245.73,0,0,1,59.34,86.23q6.44-7.51,13.48-14.51T87.57,58.19a246.75,246.75,0,0,1,405.9,188.55Z"/><path class="cls-1" d="M269.27,246.39A21.83,21.83,0,1,1,262.88,231,21.77,21.77,0,0,1,269.27,246.39Z"/></g></g></svg>